<?xml version="1.0" encoding="UTF-8" standalone="no"?>
<svg
   width="477.81735pt"
   height="97.528175pt"
   viewBox="0 0 477.81735 97.528176"
   version="1.1"
   id="svg260"
   sodipodi:docname="mountainrange_example.svg"
   inkscape:version="1.2.2 (b0a8486541, 2022-12-01)"
   xmlns:inkscape="http://www.inkscape.org/namespaces/inkscape"
   xmlns:sodipodi="http://sodipodi.sourceforge.net/DTD/sodipodi-0.dtd"
   xmlns="http://www.w3.org/2000/svg"
   xmlns:svg="http://www.w3.org/2000/svg">
  <sodipodi:namedview
     id="namedview262"
     pagecolor="#ffffff"
     bordercolor="#000000"
     borderopacity="0.25"
     inkscape:showpageshadow="2"
     inkscape:pageopacity="0.0"
     inkscape:pagecheckerboard="0"
     inkscape:deskcolor="#d1d1d1"
     inkscape:document-units="pt"
     showgrid="false"
     inkscape:zoom="1.3323675"
     inkscape:cx="255.18484"
     inkscape:cy="218.78348"
     inkscape:window-width="1854"
     inkscape:window-height="1011"
     inkscape:window-x="66"
     inkscape:window-y="340"
     inkscape:window-maximized="1"
     inkscape:current-layer="svg260"
     showguides="true">
    <sodipodi:guide
       position="142.65251,498.82452"
       orientation="48.227547,-31.276227"
       id="guide1110"
       inkscape:locked="false" />
    <sodipodi:guide
       position="98.334066,339.07755"
       orientation="23.536747,-69.323987"
       id="guide1147"
       inkscape:locked="false" />
    <sodipodi:guide
       position="-153.87343,165.17964"
       orientation="-72.918347,-6.7715467"
       id="guide1149"
       inkscape:locked="false" />
    <sodipodi:guide
       position="-25.550673,-92.741246"
       orientation="0,-1"
       id="guide5717"
       inkscape:locked="false" />
    <sodipodi:guide
       position="10.998249,37.474106"
       orientation="1,0"
       id="guide14643"
       inkscape:locked="false" />
  </sodipodi:namedview>
  <defs
     id="defs14">
    <clipPath
       id="clip-0">
      <path
         clip-rule="nonzero"
         d="m 485,56 h 4.21094 v 5 H 485 Z m 0,0"
         id="path2" />
    </clipPath>
    <clipPath
       id="clip-1">
      <path
         clip-rule="nonzero"
         d="m 158,141 h 5 v 6.1875 h -5 z m 0,0"
         id="path5" />
    </clipPath>
    <clipPath
       id="clip-2">
      <path
         clip-rule="nonzero"
         d="m 26,141 h 5 v 6.1875 h -5 z m 0,0"
         id="path8" />
    </clipPath>
    <clipPath
       id="clip-3">
      <path
         clip-rule="nonzero"
         d="m 291,141 h 4 v 6.1875 h -4 z m 0,0"
         id="path11" />
    </clipPath>
    <marker
       style="overflow:visible"
       id="Arrow1-7"
       refX="0"
       refY="0"
       orient="auto-start-reverse"
       inkscape:stockid="Arrow1"
       markerWidth="4.0606604"
       markerHeight="6.7071066"
       viewBox="0 0 4.0606602 6.7071068"
       inkscape:isstock="true"
       inkscape:collect="always"
       preserveAspectRatio="xMidYMid">
      <path
         style="fill:none;stroke:context-stroke;stroke-width:1;stroke-linecap:butt"
         d="M 3,-3 0,0 3,3"
         id="path5057-5"
         transform="rotate(180,0.125,0)"
         sodipodi:nodetypes="ccc" />
    </marker>
    <marker
       style="overflow:visible"
       id="Arrow1-7-8"
       refX="0"
       refY="0"
       orient="auto-start-reverse"
       inkscape:stockid="Arrow1"
       markerWidth="4.0606604"
       markerHeight="6.7071066"
       viewBox="0 0 4.0606602 6.7071068"
       inkscape:isstock="true"
       inkscape:collect="always"
       preserveAspectRatio="xMidYMid">
      <path
         style="fill:none;stroke:context-stroke;stroke-width:1;stroke-linecap:butt"
         d="M 3,-3 0,0 3,3"
         id="path5057-5-4"
         transform="rotate(180,0.125,0)"
         sodipodi:nodetypes="ccc" />
    </marker>
    <clipPath
       id="clipPath2235">
      <path
         clip-rule="nonzero"
         d="m 65,8 h 5 v 5.964844 h -5 z m 0,0"
         id="path5998" />
    </clipPath>
    <clipPath
       id="clipPath3297">
      <path
         clip-rule="nonzero"
         d="m 100,8 h 5 v 5.964844 h -5 z m 0,0"
         id="path8949" />
    </clipPath>
    <clipPath
       id="clipPath1497">
      <path
         clip-rule="nonzero"
         d="m 65,8 h 5 v 5.964844 h -5 z m 0,0"
         id="path4499" />
    </clipPath>
    <clipPath
       id="clipPath3887">
      <path
         clip-rule="nonzero"
         d="m 132,8 h 5 v 5.964844 h -5 z m 0,0"
         id="path4021" />
    </clipPath>
    <clipPath
       clipPathUnits="userSpaceOnUse"
       id="clipPath14290">
      <g
         id="g14298"
         style="stroke-width:1">
        <g
           id="g14296"
           style="stroke-width:1">
          <g
             id="g14294"
             style="stroke-width:1">
            <path
               clip-rule="nonzero"
               d="m 271.0238,166.43335 h 3 v 11.95312 h -3 z m 0,0"
               id="path14292"
               style="stroke-width:0.75" />
          </g>
        </g>
      </g>
    </clipPath>
    <clipPath
       clipPathUnits="userSpaceOnUse"
       id="clipPath14345">
      <g
         id="g14353"
         style="stroke-width:1">
        <g
           id="g14351"
           style="stroke-width:1">
          <g
             id="g14349"
             style="stroke-width:1">
            <path
               clip-rule="nonzero"
               d="m 317.0238,166.43335 h 4 v 11.95312 h -4 z m 0,0"
               id="path14347"
               style="stroke-width:0.75" />
          </g>
        </g>
      </g>
    </clipPath>
    <clipPath
       clipPathUnits="userSpaceOnUse"
       id="clipPath14400">
      <g
         id="g14408"
         style="stroke-width:1">
        <g
           id="g14406"
           style="stroke-width:1">
          <g
             id="g14404"
             style="stroke-width:1">
            <path
               clip-rule="nonzero"
               d="m 296.0238,166.43335 h 9 v 11.95312 h -9 z m 0,0"
               id="path14402"
               style="stroke-width:0.75" />
          </g>
        </g>
      </g>
    </clipPath>
    <clipPath
       clipPathUnits="userSpaceOnUse"
       id="clipPath14455">
      <g
         id="g14463"
         style="stroke-width:1">
        <g
           id="g14461"
           style="stroke-width:1">
          <g
             id="g14459"
             style="stroke-width:1">
            <path
               clip-rule="nonzero"
               d="m 296.0238,166.43335 h 9 v 11.95312 h -9 z m 0,0"
               id="path14457"
               style="stroke-width:0.75" />
          </g>
        </g>
      </g>
    </clipPath>
    <clipPath
       clipPathUnits="userSpaceOnUse"
       id="clipPath14510">
      <g
         id="g14518"
         style="stroke-width:1">
        <g
           id="g14516"
           style="stroke-width:1">
          <g
             id="g14514"
             style="stroke-width:1">
            <path
               clip-rule="nonzero"
               d="m 279.0238,166.43335 h 8 v 11.95312 h -8 z m 0,0"
               id="path14512"
               style="stroke-width:0.75" />
          </g>
        </g>
      </g>
    </clipPath>
    <clipPath
       clipPathUnits="userSpaceOnUse"
       id="clipPath14565">
      <g
         id="g14573"
         style="stroke-width:1">
        <g
           id="g14571"
           style="stroke-width:1">
          <g
             id="g14569"
             style="stroke-width:1">
            <path
               clip-rule="nonzero"
               d="m 279.0238,166.43335 h 8 v 11.95312 h -8 z m 0,0"
               id="path14567"
               style="stroke-width:0.75" />
          </g>
        </g>
      </g>
    </clipPath>
  </defs>
  <g
     id="g14665"
     transform="translate(-32.165068,-36.198907)">
    <g
       id="g8792"
       transform="translate(97.5)">
      <path
         style="fill:none;stroke:#ff0000;stroke-width:1.13386;stroke-linecap:round;stroke-dasharray:none;stroke-opacity:0.5;stop-color:#000000"
         d="m 8.865311,75.644851 31.79185,-10.78333 2.55161,27.44962 26.238016,-8.89955 0.35344,3.80229 9.56984,-3.24595 2.90319,31.231869 19.563153,-6.63553 2.28634,24.59588"
         id="path1526-2-5"
         sodipodi:nodetypes="ccccccccc" />
      <path
         fill-rule="evenodd"
         fill="#000000"
         fill-opacity="1"
         d="m 58.749627,119.29222 c 0,0.92896 -0.7548,1.67914 -1.68079,1.67914 -0.929876,0 -1.680786,-0.75018 -1.680786,-1.67914 0,-0.92897 0.75091,-1.67914 1.680786,-1.67914 0.92599,0 1.68079,0.75017 1.68079,1.67914 z m 0,0"
         id="path144-3-2-0"
         style="stroke-width:0.999999" />
      <path
         fill-rule="evenodd"
         fill="#000000"
         fill-opacity="1"
         d="m 77.459227,111.07901 c 0,0.92897 -0.7548,1.67914 -1.68079,1.67914 -0.92988,0 -1.68079,-0.75017 -1.68079,-1.67914 0,-0.92897 0.75091,-1.67914 1.68079,-1.67914 0.92599,0 1.68079,0.75017 1.68079,1.67914 z m 0,0"
         id="path144-6-8-3"
         style="stroke-width:0.999999" />
      <path
         fill-rule="evenodd"
         fill="#000000"
         fill-opacity="1"
         d="m 100.26056,73.530121 c 0,0.92896 -0.754783,1.67914 -1.680773,1.67914 -0.92988,0 -1.68079,-0.75018 -1.68079,-1.67914 0,-0.92897 0.75091,-1.67914 1.68079,-1.67914 0.92599,0 1.680773,0.75017 1.680773,1.67914 z m 0,0"
         id="path144-7-9-6"
         style="stroke-width:0.999999" />
      <path
         fill-rule="evenodd"
         fill="#000000"
         fill-opacity="1"
         d="m 68.575967,55.961971 c 0,0.92896 -0.75479,1.67914 -1.68079,1.67914 -0.92987,0 -1.68078,-0.75018 -1.68078,-1.67914 0,-0.92897 0.75091,-1.67914 1.68078,-1.67914 0.926,0 1.68079,0.75017 1.68079,1.67914 z m 0,0"
         id="path144-5-7-1"
         style="stroke-width:0.999999" />
      <path
         fill-rule="evenodd"
         fill="#000000"
         fill-opacity="1"
         d="m 41.523701,56.102001 c 0,0.92896 -0.7548,1.67914 -1.68079,1.67914 -0.92988,0 -1.68079,-0.75018 -1.68079,-1.67914 0,-0.92897 0.75091,-1.67914 1.68079,-1.67914 0.92599,0 1.68079,0.75017 1.68079,1.67914 z m 0,0"
         id="path144-35-3-0"
         style="stroke-width:0.999999" />
      <path
         fill-rule="evenodd"
         fill="#000000"
         fill-opacity="1"
         d="m 112.39214,105.55402 c 0,0.92897 -0.7548,1.67914 -1.68079,1.67914 -0.92988,0 -1.68079,-0.75017 -1.68079,-1.67914 0,-0.92896 0.75091,-1.67914 1.68079,-1.67914 0.92599,0 1.68079,0.75018 1.68079,1.67914 z m 0,0"
         id="path144-62-6-6"
         style="stroke-width:0.999999" />
      <path
         fill-rule="evenodd"
         fill="#000000"
         fill-opacity="1"
         d="m 31.291491,86.768521 c 0,0.92897 -0.7548,1.67914 -1.68079,1.67914 -0.92988,0 -1.68079,-0.75017 -1.68079,-1.67914 0,-0.92896 0.75091,-1.67914 1.68079,-1.67914 0.92599,0 1.68079,0.75018 1.68079,1.67914 z m 0,0"
         id="path144-9-1-3"
         style="stroke-width:0.999999" />
      <path
         fill-rule="evenodd"
         fill="#000000"
         fill-opacity="1"
         d="m 11.622861,88.468141 c 0,0.92897 -0.7548,1.67914 -1.68079,1.67914 -0.92988,0 -1.68079,-0.75017 -1.68079,-1.67914 0,-0.92897 0.75091,-1.67914 1.68079,-1.67914 0.92599,0 1.68079,0.75017 1.68079,1.67914 z m 0,0"
         id="path144-1-9-2-2"
         style="stroke-width:0.999999" />
      <path
         fill-rule="evenodd"
         fill="#000000"
         fill-opacity="1"
         d="m 90.526557,129.68727 c 0,0.92897 -0.7548,1.67914 -1.68079,1.67914 -0.92988,0 -1.68079,-0.75017 -1.68079,-1.67914 0,-0.92897 0.75091,-1.67914 1.68079,-1.67914 0.92599,0 1.68079,0.75017 1.68079,1.67914 z m 0,0"
         id="path144-1-0-9-0"
         style="stroke-width:0.999999" />
      <path
         fill-rule="evenodd"
         fill="#000000"
         fill-opacity="1"
         d="m 20.726001,117.16258 c 0,0.92897 -0.7548,1.67914 -1.68079,1.67914 -0.92988,0 -1.68079,-0.75017 -1.68079,-1.67914 0,-0.92897 0.75091,-1.67914 1.68079,-1.67914 0.92599,0 1.68079,0.75017 1.68079,1.67914 z m 0,0"
         id="path144-1-23-3-6"
         style="stroke-width:0.999999" />
      <path
         fill-rule="evenodd"
         fill="#000000"
         fill-opacity="1"
         d="m 81.050857,83.967931 c 0,0.92897 -0.7548,1.67914 -1.68079,1.67914 -0.92988,0 -1.68079,-0.75017 -1.68079,-1.67914 0,-0.92897 0.75091,-1.67914 1.68079,-1.67914 0.92599,0 1.68079,0.75017 1.68079,1.67914 z m 0,0"
         id="path144-2-1-1"
         style="stroke-width:0.999999" />
      <path
         fill-rule="evenodd"
         fill="#000000"
         fill-opacity="1"
         d="m 35.643051,130.95381 c 0,0.92897 -0.7548,1.67914 -1.68079,1.67914 -0.92988,0 -1.68079,-0.75017 -1.68079,-1.67914 0,-0.92897 0.75091,-1.67914 1.68079,-1.67914 0.92599,0 1.68079,0.75017 1.68079,1.67914 z m 0,0"
         id="path144-1-94-5"
         style="stroke-width:0.999999" />
      <path
         style="fill:none;stroke:#000000;stroke-width:0.566929;stroke-linecap:round;stroke-dasharray:1.70079, 1.70079;stroke-dashoffset:0;stroke-opacity:1;stop-color:#000000"
         d="m 38.364921,40.186521 2.29225,24.68372 38.068486,-12.92493"
         id="path2835-5"
         sodipodi:nodetypes="ccc" />
      <path
         style="fill:none;stroke:#000000;stroke-width:0.566929;stroke-linecap:round;stroke-dasharray:1.70079, 1.70079;stroke-dashoffset:0;stroke-opacity:1;stop-color:#000000"
         d="m 65.088717,36.482371 4.35807,46.92922 50.858633,-17.26743"
         id="path2835-5-6-8" />
    </g>
    <g
       id="g14590"
       transform="translate(-174.39729,-114.29253)">
      <path
         d="m 273.91442,178.3056 c 0,-0.0312 0,-0.0625 -0.20312,-0.26563 -1.20313,-1.20312 -1.875,-3.17187 -1.875,-5.60937 0,-2.32813 0.5625,-4.32813 1.95312,-5.73438 0.125,-0.10937 0.125,-0.125 0.125,-0.17187 0,-0.0625 -0.0625,-0.0937 -0.10937,-0.0937 -0.15625,0 -1.14063,0.85937 -1.71875,2.03125 -0.60938,1.21875 -0.89063,2.48437 -0.89063,3.96875 0,1.0625 0.17188,2.48437 0.78125,3.75 0.71875,1.4375 1.6875,2.21875 1.82813,2.21875 0.0469,0 0.10937,-0.0312 0.10937,-0.0937 z m 0,0"
         id="path77"
         style="fill:#000000;fill-opacity:1"
         clip-path="url(#clipPath14290)" />
      <path
         d="m 277.9508,173.69622 c 0,-0.0625 -0.0469,-0.10937 -0.10937,-0.10937 -0.10938,0 -0.125,0.0312 -0.1875,0.23437 -0.3125,1.09375 -0.79688,1.45313 -1.1875,1.45313 -0.14063,0 -0.3125,-0.0312 -0.3125,-0.39063 0,-0.32812 0.14062,-0.67187 0.28125,-1.03125 l 0.82812,-2.23437 c 0.0312,-0.0937 0.125,-0.3125 0.125,-0.53125 0,-0.5 -0.35937,-0.95313 -0.95312,-0.95313 -1.09375,0 -1.53125,1.73438 -1.53125,1.82813 0,0.0469 0.0469,0.10937 0.125,0.10937 0.10937,0 0.125,-0.0469 0.17187,-0.21875 0.28125,-1 0.73438,-1.48437 1.20313,-1.48437 0.10937,0 0.3125,0.0156 0.3125,0.39062 0,0.3125 -0.15625,0.70313 -0.25,0.96875 l -0.84375,2.21875 c -0.0625,0.20313 -0.14063,0.39063 -0.14063,0.60938 0,0.53125 0.375,0.96875 0.95313,0.96875 1.09375,0 1.51562,-1.75 1.51562,-1.82813 z m -0.0937,-5.75 c 0,-0.1875 -0.14062,-0.40625 -0.40625,-0.40625 -0.26562,0 -0.57812,0.26563 -0.57812,0.57813 0,0.29687 0.25,0.39062 0.39062,0.39062 0.32813,0 0.59375,-0.3125 0.59375,-0.5625 z m 0,0"
         id="path81"
         style="fill:#000000;fill-opacity:1" />
      <path
         d="m 281.9448,172.4306 c 0,-0.92188 -0.125,-2.39063 -0.79688,-3.78125 -0.70312,-1.4375 -1.6875,-2.21875 -1.8125,-2.21875 -0.0469,0 -0.10937,0.0312 -0.10937,0.0937 0,0.0469 0,0.0625 0.20312,0.26562 1.20313,1.20313 1.85938,3.1875 1.85938,5.625 0,2.3125 -0.5625,4.3125 -1.9375,5.71875 -0.125,0.10938 -0.125,0.14063 -0.125,0.17188 0,0.0625 0.0625,0.0937 0.10937,0.0937 0.15625,0 1.14063,-0.85938 1.71875,-2.03125 0.60938,-1.21875 0.89063,-2.51563 0.89063,-3.9375 z m 0,0"
         id="path85"
         style="fill:#000000;fill-opacity:1"
         clip-path="url(#clipPath14510)" />
    </g>
  </g>
  <g
     id="g14702"
     transform="translate(-25.681524,-36.198907)">
    <g
       id="g8825"
       transform="translate(76.5)">
      <path
         style="fill:none;stroke:#0000ff;stroke-width:0.566929;stroke-linecap:round;stroke-dasharray:none;stroke-opacity:1;marker-mid:url(#Arrow1-7);stop-color:#000000"
         d="M 197.17254,133.029 239.1862,68.244498 247.25826,55.797494"
         id="path2179-9"
         sodipodi:nodetypes="ccc" />
      <path
         style="fill:none;stroke:#ff0000;stroke-width:1.13386;stroke-linecap:round;stroke-dasharray:none;stroke-opacity:0.5;stop-color:#000000"
         d="m 177.83942,75.644837 31.79185,-10.78333 2.55161,27.44962 26.23802,-8.899549 0.35344,3.80229 9.56984,-3.24595 2.90319,31.231872 19.56315,-6.63553 2.28634,24.59589"
         id="path1526-2"
         sodipodi:nodetypes="ccccccccc" />
      <path
         fill-rule="evenodd"
         fill="#000000"
         fill-opacity="1"
         d="m 227.72374,119.29222 c 0,0.92896 -0.7548,1.67914 -1.68079,1.67914 -0.92988,0 -1.68079,-0.75018 -1.68079,-1.67914 0,-0.92897 0.75091,-1.67915 1.68079,-1.67915 0.92599,0 1.68079,0.75018 1.68079,1.67915 z m 0,0"
         id="path144-3-2"
         style="stroke-width:0.999999" />
      <path
         fill-rule="evenodd"
         fill="#000000"
         fill-opacity="1"
         d="m 246.43334,111.079 c 0,0.92897 -0.7548,1.67914 -1.68079,1.67914 -0.92988,0 -1.68079,-0.75017 -1.68079,-1.67914 0,-0.92897 0.75091,-1.67914 1.68079,-1.67914 0.92599,0 1.68079,0.75017 1.68079,1.67914 z m 0,0"
         id="path144-6-8"
         style="stroke-width:0.999999" />
      <path
         fill-rule="evenodd"
         fill="#000000"
         fill-opacity="1"
         d="m 269.23467,73.530107 c 0,0.928961 -0.75478,1.679141 -1.68077,1.679141 -0.92988,0 -1.68079,-0.75018 -1.68079,-1.679141 0,-0.928969 0.75091,-1.679139 1.68079,-1.679139 0.92599,0 1.68077,0.75017 1.68077,1.679139 z m 0,0"
         id="path144-7-9"
         style="stroke-width:0.999999" />
      <path
         fill-rule="evenodd"
         fill="#000000"
         fill-opacity="1"
         d="m 237.55008,55.961958 c 0,0.92896 -0.75479,1.67914 -1.68079,1.67914 -0.92987,0 -1.68078,-0.75018 -1.68078,-1.67914 0,-0.92897 0.75091,-1.67914 1.68078,-1.67914 0.926,0 1.68079,0.75017 1.68079,1.67914 z m 0,0"
         id="path144-5-7"
         style="stroke-width:0.999999" />
      <path
         fill-rule="evenodd"
         fill="#000000"
         fill-opacity="1"
         d="m 210.49781,56.101988 c 0,0.92896 -0.7548,1.67914 -1.68079,1.67914 -0.92988,0 -1.68079,-0.75018 -1.68079,-1.67914 0,-0.92897 0.75091,-1.679139 1.68079,-1.679139 0.92599,0 1.68079,0.750169 1.68079,1.679139 z m 0,0"
         id="path144-35-3"
         style="stroke-width:0.999999" />
      <path
         fill-rule="evenodd"
         fill="#000000"
         fill-opacity="1"
         d="m 281.36625,105.55401 c 0,0.92897 -0.7548,1.67914 -1.68079,1.67914 -0.92988,0 -1.68079,-0.75017 -1.68079,-1.67914 0,-0.92896 0.75091,-1.67914 1.68079,-1.67914 0.92599,0 1.68079,0.75018 1.68079,1.67914 z m 0,0"
         id="path144-62-6"
         style="stroke-width:0.999999" />
      <path
         fill-rule="evenodd"
         fill="#000000"
         fill-opacity="1"
         d="m 200.2656,86.768507 c 0,0.928971 -0.7548,1.67914 -1.68079,1.67914 -0.92988,0 -1.68079,-0.750169 -1.68079,-1.67914 0,-0.92896 0.75091,-1.67914 1.68079,-1.67914 0.92599,0 1.68079,0.75018 1.68079,1.67914 z m 0,0"
         id="path144-9-1"
         style="stroke-width:0.999999" />
      <path
         fill-rule="evenodd"
         fill="#000000"
         fill-opacity="1"
         d="m 180.59697,88.46813 c 0,0.92897 -0.7548,1.67914 -1.68079,1.67914 -0.92988,0 -1.68079,-0.75017 -1.68079,-1.67914 0,-0.928971 0.75091,-1.679141 1.68079,-1.679141 0.92599,0 1.68079,0.75017 1.68079,1.679141 z m 0,0"
         id="path144-1-9-2"
         style="stroke-width:0.999999" />
      <path
         fill-rule="evenodd"
         fill="#000000"
         fill-opacity="1"
         d="m 259.50067,129.68727 c 0,0.92897 -0.7548,1.67914 -1.68079,1.67914 -0.92988,0 -1.68079,-0.75017 -1.68079,-1.67914 0,-0.92897 0.75091,-1.67914 1.68079,-1.67914 0.92599,0 1.68079,0.75017 1.68079,1.67914 z m 0,0"
         id="path144-1-0-9"
         style="stroke-width:0.999999" />
      <path
         fill-rule="evenodd"
         fill="#000000"
         fill-opacity="1"
         d="m 189.70011,117.16257 c 0,0.92897 -0.7548,1.67915 -1.68079,1.67915 -0.92988,0 -1.68079,-0.75018 -1.68079,-1.67915 0,-0.92897 0.75091,-1.67914 1.68079,-1.67914 0.92599,0 1.68079,0.75017 1.68079,1.67914 z m 0,0"
         id="path144-1-23-3"
         style="stroke-width:0.999999" />
      <path
         fill-rule="evenodd"
         fill="#000000"
         fill-opacity="1"
         d="m 250.02497,83.967917 c 0,0.928971 -0.7548,1.679141 -1.68079,1.679141 -0.92988,0 -1.68079,-0.75017 -1.68079,-1.67914 0,-0.92897 0.75091,-1.67914 1.68079,-1.67914 0.92599,0 1.68079,0.75017 1.68079,1.679139 z m 0,0"
         id="path144-2-1"
         style="stroke-width:0.999999" />
      <path
         fill-rule="evenodd"
         fill="#000000"
         fill-opacity="1"
         d="m 204.61716,130.95381 c 0,0.92897 -0.7548,1.67914 -1.68079,1.67914 -0.92988,0 -1.68079,-0.75017 -1.68079,-1.67914 0,-0.92897 0.75091,-1.67914 1.68079,-1.67914 0.92599,0 1.68079,0.75017 1.68079,1.67914 z m 0,0"
         id="path144-1-94"
         style="stroke-width:0.999999" />
      <path
         style="fill:none;stroke:#000000;stroke-width:0.566929;stroke-linecap:round;stroke-dasharray:1.70079, 1.70079;stroke-dashoffset:0;stroke-opacity:1;stop-color:#000000"
         d="m 222.82738,44.645115 3.96628,42.710249 50.85863,-17.267422"
         id="path2835"
         sodipodi:nodetypes="ccc" />
      <path
         style="fill:none;stroke:#0000ff;stroke-width:0.566929;stroke-linecap:round;stroke-dasharray:none;stroke-opacity:1;marker-mid:url(#Arrow1-7-8);stop-color:#000000"
         d="m 165.83351,115.34365 42.01366,-64.7845 5.31047,-8.188672"
         id="path2179-9-3"
         sodipodi:nodetypes="ccc" />
      <path
         style="fill:none;stroke:#000000;stroke-width:0.566929;stroke-linecap:round;stroke-dasharray:1.70079, 1.70079;stroke-dashoffset:0;stroke-opacity:1;stop-color:#000000"
         d="m 192.91037,42.272561 2.54426,27.397455 50.85863,-17.267422"
         id="path2835-1"
         sodipodi:nodetypes="ccc" />
    </g>
    <g
       id="g14608"
       transform="translate(-39.52172,-114.29254)">
      <path
         d="m 287.01296,178.3056 c 0,-0.0312 0,-0.0625 -0.20312,-0.26563 -1.20313,-1.20312 -1.875,-3.17187 -1.875,-5.60937 0,-2.32813 0.5625,-4.32813 1.95312,-5.73438 0.125,-0.10937 0.125,-0.125 0.125,-0.17187 0,-0.0625 -0.0625,-0.0937 -0.10937,-0.0937 -0.15625,0 -1.14063,0.85937 -1.71875,2.03125 -0.60938,1.21875 -0.89063,2.48437 -0.89063,3.96875 0,1.0625 0.17188,2.48437 0.78125,3.75 0.71875,1.4375 1.6875,2.21875 1.82813,2.21875 0.0469,0 0.10937,-0.0312 0.10937,-0.0937 z m 0,0"
         id="path89"
         style="fill:#000000;fill-opacity:1"
         clip-path="url(#clipPath14565)" />
      <path
         d="m 291.0488,173.69622 c 0,-0.0625 -0.0469,-0.10937 -0.10937,-0.10937 -0.10938,0 -0.125,0.0312 -0.1875,0.23437 -0.3125,1.09375 -0.79688,1.45313 -1.1875,1.45313 -0.14063,0 -0.3125,-0.0312 -0.3125,-0.39063 0,-0.32812 0.14062,-0.67187 0.28125,-1.03125 l 0.82812,-2.23437 c 0.0312,-0.0937 0.125,-0.3125 0.125,-0.53125 0,-0.5 -0.35937,-0.95313 -0.95312,-0.95313 -1.09375,0 -1.53125,1.73438 -1.53125,1.82813 0,0.0469 0.0469,0.10937 0.125,0.10937 0.10937,0 0.125,-0.0469 0.17187,-0.21875 0.28125,-1 0.73438,-1.48437 1.20313,-1.48437 0.10937,0 0.3125,0.0156 0.3125,0.39062 0,0.3125 -0.15625,0.70313 -0.25,0.96875 l -0.84375,2.21875 c -0.0625,0.20313 -0.14063,0.39063 -0.14063,0.60938 0,0.53125 0.375,0.96875 0.95313,0.96875 1.09375,0 1.51562,-1.75 1.51562,-1.82813 z m -0.0937,-5.75 c 0,-0.1875 -0.14062,-0.40625 -0.40625,-0.40625 -0.26562,0 -0.57812,0.26563 -0.57812,0.57813 0,0.29687 0.25,0.39062 0.39062,0.39062 0.32813,0 0.59375,-0.3125 0.59375,-0.5625 z m 0,0"
         id="path93"
         style="fill:#000000;fill-opacity:1" />
      <path
         d="m 295.04184,173.69622 c 0,-0.0625 -0.0469,-0.10937 -0.10938,-0.10937 -0.10937,0 -0.125,0.0312 -0.1875,0.23437 -0.3125,1.09375 -0.79687,1.45313 -1.1875,1.45313 -0.14062,0 -0.3125,-0.0312 -0.3125,-0.39063 0,-0.32812 0.14063,-0.67187 0.28125,-1.03125 l 0.82813,-2.23437 c 0.0312,-0.0937 0.125,-0.3125 0.125,-0.53125 0,-0.5 -0.35938,-0.95313 -0.95313,-0.95313 -1.09375,0 -1.53125,1.73438 -1.53125,1.82813 0,0.0469 0.0469,0.10937 0.125,0.10937 0.10938,0 0.125,-0.0469 0.17188,-0.21875 0.28125,-1 0.73437,-1.48437 1.20312,-1.48437 0.10938,0 0.3125,0.0156 0.3125,0.39062 0,0.3125 -0.15625,0.70313 -0.25,0.96875 l -0.84375,2.21875 c -0.0625,0.20313 -0.14062,0.39063 -0.14062,0.60938 0,0.53125 0.375,0.96875 0.95312,0.96875 1.09375,0 1.51563,-1.75 1.51563,-1.82813 z m -0.0937,-5.75 c 0,-0.1875 -0.14063,-0.40625 -0.40625,-0.40625 -0.26563,0 -0.57813,0.26563 -0.57813,0.57813 0,0.29687 0.25,0.39062 0.39063,0.39062 0.32812,0 0.59375,-0.3125 0.59375,-0.5625 z m 0,0"
         id="path97"
         style="fill:#000000;fill-opacity:1" />
      <path
         d="m 299.0358,172.4306 c 0,-0.92188 -0.125,-2.39063 -0.79688,-3.78125 -0.70312,-1.4375 -1.6875,-2.21875 -1.8125,-2.21875 -0.0469,0 -0.10937,0.0312 -0.10937,0.0937 0,0.0469 0,0.0625 0.20312,0.26562 1.20313,1.20313 1.85938,3.1875 1.85938,5.625 0,2.3125 -0.5625,4.3125 -1.9375,5.71875 -0.125,0.10938 -0.125,0.14063 -0.125,0.17188 0,0.0625 0.0625,0.0937 0.10937,0.0937 0.15625,0 1.14063,-0.85938 1.71875,-2.03125 0.60938,-1.21875 0.89063,-2.51563 0.89063,-3.9375 z m 0,0"
         id="path101"
         style="fill:#000000;fill-opacity:1"
         clip-path="url(#clipPath14455)" />
    </g>
  </g>
  <g
     id="g14738"
     transform="translate(-11.647154,-36.198907)">
    <g
       id="g8860"
       transform="translate(30)">
      <path
         style="fill:none;stroke:#ff0000;stroke-width:1.13386;stroke-linecap:round;stroke-dasharray:none;stroke-opacity:0.5;stop-color:#000000"
         d="m 354.12698,75.644844 31.79185,-10.78333 2.55161,27.44962 26.23802,-8.899549 0.35344,3.80229 9.56984,-3.24595 2.90319,31.231875 19.56315,-6.63554 2.28634,24.59589"
         id="path1526-2-56"
         sodipodi:nodetypes="ccccccccc" />
      <path
         fill-rule="evenodd"
         fill="#000000"
         fill-opacity="1"
         d="m 404.0113,119.29222 c 0,0.92896 -0.7548,1.67914 -1.68079,1.67914 -0.92988,0 -1.68079,-0.75018 -1.68079,-1.67914 0,-0.92897 0.75091,-1.67914 1.68079,-1.67914 0.92599,0 1.68079,0.75017 1.68079,1.67914 z m 0,0"
         id="path144-3-2-9"
         style="stroke-width:0.999999" />
      <path
         fill-rule="evenodd"
         fill="#000000"
         fill-opacity="1"
         d="m 422.7209,111.079 c 0,0.92897 -0.7548,1.67915 -1.68079,1.67915 -0.92988,0 -1.68079,-0.75018 -1.68079,-1.67915 0,-0.92897 0.75091,-1.67914 1.68079,-1.67914 0.92599,0 1.68079,0.75017 1.68079,1.67914 z m 0,0"
         id="path144-6-8-37"
         style="stroke-width:0.999999" />
      <path
         fill-rule="evenodd"
         fill="#000000"
         fill-opacity="1"
         d="m 445.52223,73.530114 c 0,0.928961 -0.75478,1.679141 -1.68077,1.679141 -0.92988,0 -1.68079,-0.75018 -1.68079,-1.679141 0,-0.928969 0.75091,-1.679139 1.68079,-1.679139 0.92599,0 1.68077,0.75017 1.68077,1.679139 z m 0,0"
         id="path144-7-9-4"
         style="stroke-width:0.999999" />
      <path
         fill-rule="evenodd"
         fill="#000000"
         fill-opacity="1"
         d="m 413.83764,55.961965 c 0,0.92896 -0.75479,1.67914 -1.68079,1.67914 -0.92987,0 -1.68078,-0.75018 -1.68078,-1.67914 0,-0.92897 0.75091,-1.67914 1.68078,-1.67914 0.926,0 1.68079,0.75017 1.68079,1.67914 z m 0,0"
         id="path144-5-7-5"
         style="stroke-width:0.999999" />
      <path
         fill-rule="evenodd"
         fill="#000000"
         fill-opacity="1"
         d="m 386.78537,56.101995 c 0,0.92896 -0.7548,1.67914 -1.68079,1.67914 -0.92988,0 -1.68079,-0.75018 -1.68079,-1.67914 0,-0.92897 0.75091,-1.679139 1.68079,-1.679139 0.92599,0 1.68079,0.750169 1.68079,1.679139 z m 0,0"
         id="path144-35-3-2"
         style="stroke-width:0.999999" />
      <path
         fill-rule="evenodd"
         fill="#000000"
         fill-opacity="1"
         d="m 457.65381,105.55401 c 0,0.92897 -0.7548,1.67914 -1.68079,1.67914 -0.92988,0 -1.68079,-0.75017 -1.68079,-1.67914 0,-0.92896 0.75091,-1.67914 1.68079,-1.67914 0.92599,0 1.68079,0.75018 1.68079,1.67914 z m 0,0"
         id="path144-62-6-5"
         style="stroke-width:0.999999" />
      <path
         fill-rule="evenodd"
         fill="#000000"
         fill-opacity="1"
         d="m 376.55316,86.768514 c 0,0.928971 -0.7548,1.67914 -1.68079,1.67914 -0.92988,0 -1.68079,-0.750169 -1.68079,-1.67914 0,-0.92896 0.75091,-1.67914 1.68079,-1.67914 0.92599,0 1.68079,0.75018 1.68079,1.67914 z m 0,0"
         id="path144-9-1-4"
         style="stroke-width:0.999999" />
      <path
         fill-rule="evenodd"
         fill="#000000"
         fill-opacity="1"
         d="m 356.88453,88.468137 c 0,0.92897 -0.7548,1.67914 -1.68079,1.67914 -0.92988,0 -1.68079,-0.75017 -1.68079,-1.67914 0,-0.928971 0.75091,-1.679141 1.68079,-1.679141 0.92599,0 1.68079,0.75017 1.68079,1.679141 z m 0,0"
         id="path144-1-9-2-7"
         style="stroke-width:0.999999" />
      <path
         fill-rule="evenodd"
         fill="#000000"
         fill-opacity="1"
         d="m 435.78823,129.68727 c 0,0.92897 -0.7548,1.67914 -1.68079,1.67914 -0.92988,0 -1.68079,-0.75017 -1.68079,-1.67914 0,-0.92897 0.75091,-1.67914 1.68079,-1.67914 0.92599,0 1.68079,0.75017 1.68079,1.67914 z m 0,0"
         id="path144-1-0-9-4"
         style="stroke-width:0.999999" />
      <path
         fill-rule="evenodd"
         fill="#000000"
         fill-opacity="1"
         d="m 365.98767,117.16258 c 0,0.92897 -0.7548,1.67914 -1.68079,1.67914 -0.92988,0 -1.68079,-0.75017 -1.68079,-1.67914 0,-0.92897 0.75091,-1.67914 1.68079,-1.67914 0.92599,0 1.68079,0.75017 1.68079,1.67914 z m 0,0"
         id="path144-1-23-3-4"
         style="stroke-width:0.999999" />
      <path
         fill-rule="evenodd"
         fill="#000000"
         fill-opacity="1"
         d="m 426.31253,83.967924 c 0,0.928971 -0.7548,1.679141 -1.68079,1.679141 -0.92988,0 -1.68079,-0.75017 -1.68079,-1.67914 0,-0.92897 0.75091,-1.67914 1.68079,-1.67914 0.92599,0 1.68079,0.75017 1.68079,1.679139 z m 0,0"
         id="path144-2-1-3"
         style="stroke-width:0.999999" />
      <path
         fill-rule="evenodd"
         fill="#000000"
         fill-opacity="1"
         d="m 380.90472,130.95381 c 0,0.92897 -0.7548,1.67914 -1.68079,1.67914 -0.92988,0 -1.68079,-0.75017 -1.68079,-1.67914 0,-0.92897 0.75091,-1.67914 1.68079,-1.67914 0.92599,0 1.68079,0.75017 1.68079,1.67914 z m 0,0"
         id="path144-1-94-0"
         style="stroke-width:0.999999" />
      <path
         style="fill:none;stroke:#000000;stroke-width:0.566929;stroke-linecap:round;stroke-dasharray:1.70079, 1.70079;stroke-dashoffset:0;stroke-opacity:1;stop-color:#000000"
         d="m 384.11237,45.38192 4.35807,46.929214 64.40422,-21.866394"
         id="path2835-7"
         sodipodi:nodetypes="ccc" />
      <path
         style="fill:none;stroke:#000000;stroke-width:0.566929;stroke-linecap:round;stroke-dasharray:1.70079, 1.70079;stroke-dashoffset:0;stroke-opacity:1;stop-color:#000000"
         d="m 411.28763,46.571206 3.77427,40.642669 44.40262,-15.075491"
         id="path2835-7-4"
         sodipodi:nodetypes="ccc" />
    </g>
    <g
       id="g14627"
       transform="translate(73.17483,-114.29253)">
      <path
         d="m 304.10397,178.3056 c 0,-0.0312 0,-0.0625 -0.20313,-0.26563 -1.20312,-1.20312 -1.875,-3.17187 -1.875,-5.60937 0,-2.32813 0.5625,-4.32813 1.95313,-5.73438 0.125,-0.10937 0.125,-0.125 0.125,-0.17187 0,-0.0625 -0.0625,-0.0937 -0.10938,-0.0937 -0.15625,0 -1.14062,0.85937 -1.71875,2.03125 -0.60937,1.21875 -0.89062,2.48437 -0.89062,3.96875 0,1.0625 0.17187,2.48437 0.78125,3.75 0.71875,1.4375 1.6875,2.21875 1.82812,2.21875 0.0469,0 0.10938,-0.0312 0.10938,-0.0937 z m 0,0"
         id="path105"
         style="fill:#000000;fill-opacity:1"
         clip-path="url(#clipPath14400)" />
      <path
         d="m 308.1408,173.69622 c 0,-0.0625 -0.0469,-0.10937 -0.10937,-0.10937 -0.10938,0 -0.125,0.0312 -0.1875,0.23437 -0.3125,1.09375 -0.79688,1.45313 -1.1875,1.45313 -0.14063,0 -0.3125,-0.0312 -0.3125,-0.39063 0,-0.32812 0.14062,-0.67187 0.28125,-1.03125 l 0.82812,-2.23437 c 0.0312,-0.0937 0.125,-0.3125 0.125,-0.53125 0,-0.5 -0.35937,-0.95313 -0.95312,-0.95313 -1.09375,0 -1.53125,1.73438 -1.53125,1.82813 0,0.0469 0.0469,0.10937 0.125,0.10937 0.10937,0 0.125,-0.0469 0.17187,-0.21875 0.28125,-1 0.73438,-1.48437 1.20313,-1.48437 0.10937,0 0.3125,0.0156 0.3125,0.39062 0,0.3125 -0.15625,0.70313 -0.25,0.96875 l -0.84375,2.21875 c -0.0625,0.20313 -0.14063,0.39063 -0.14063,0.60938 0,0.53125 0.375,0.96875 0.95313,0.96875 1.09375,0 1.51562,-1.75 1.51562,-1.82813 z m -0.0937,-5.75 c 0,-0.1875 -0.14062,-0.40625 -0.40625,-0.40625 -0.26562,0 -0.57812,0.26563 -0.57812,0.57813 0,0.29687 0.25,0.39062 0.39062,0.39062 0.32813,0 0.59375,-0.3125 0.59375,-0.5625 z m 0,0"
         id="path109"
         style="fill:#000000;fill-opacity:1" />
      <path
         d="m 312.13384,173.69622 c 0,-0.0625 -0.0469,-0.10937 -0.10937,-0.10937 -0.10938,0 -0.125,0.0312 -0.1875,0.23437 -0.3125,1.09375 -0.79688,1.45313 -1.1875,1.45313 -0.14063,0 -0.3125,-0.0312 -0.3125,-0.39063 0,-0.32812 0.14062,-0.67187 0.28125,-1.03125 l 0.82812,-2.23437 c 0.0312,-0.0937 0.125,-0.3125 0.125,-0.53125 0,-0.5 -0.35937,-0.95313 -0.95312,-0.95313 -1.09375,0 -1.53125,1.73438 -1.53125,1.82813 0,0.0469 0.0469,0.10937 0.125,0.10937 0.10937,0 0.125,-0.0469 0.17187,-0.21875 0.28125,-1 0.73438,-1.48437 1.20313,-1.48437 0.10937,0 0.3125,0.0156 0.3125,0.39062 0,0.3125 -0.15625,0.70313 -0.25,0.96875 l -0.84375,2.21875 c -0.0625,0.20313 -0.14063,0.39063 -0.14063,0.60938 0,0.53125 0.375,0.96875 0.95313,0.96875 1.09375,0 1.51562,-1.75 1.51562,-1.82813 z m -0.0937,-5.75 c 0,-0.1875 -0.14062,-0.40625 -0.40625,-0.40625 -0.26562,0 -0.57812,0.26563 -0.57812,0.57813 0,0.29687 0.25,0.39062 0.39062,0.39062 0.32813,0 0.59375,-0.3125 0.59375,-0.5625 z m 0,0"
         id="path113"
         style="fill:#000000;fill-opacity:1" />
      <path
         d="m 316.12687,173.69622 c 0,-0.0625 -0.0469,-0.10937 -0.10938,-0.10937 -0.10937,0 -0.125,0.0312 -0.1875,0.23437 -0.3125,1.09375 -0.79687,1.45313 -1.1875,1.45313 -0.14062,0 -0.3125,-0.0312 -0.3125,-0.39063 0,-0.32812 0.14063,-0.67187 0.28125,-1.03125 l 0.82813,-2.23437 c 0.0312,-0.0937 0.125,-0.3125 0.125,-0.53125 0,-0.5 -0.35938,-0.95313 -0.95313,-0.95313 -1.09375,0 -1.53125,1.73438 -1.53125,1.82813 0,0.0469 0.0469,0.10937 0.125,0.10937 0.10938,0 0.125,-0.0469 0.17188,-0.21875 0.28125,-1 0.73437,-1.48437 1.20312,-1.48437 0.10938,0 0.3125,0.0156 0.3125,0.39062 0,0.3125 -0.15625,0.70313 -0.25,0.96875 l -0.84375,2.21875 c -0.0625,0.20313 -0.14062,0.39063 -0.14062,0.60938 0,0.53125 0.375,0.96875 0.95312,0.96875 1.09375,0 1.51563,-1.75 1.51563,-1.82813 z m -0.0937,-5.75 c 0,-0.1875 -0.14063,-0.40625 -0.40625,-0.40625 -0.26563,0 -0.57813,0.26563 -0.57813,0.57813 0,0.29687 0.25,0.39062 0.39063,0.39062 0.32812,0 0.59375,-0.3125 0.59375,-0.5625 z m 0,0"
         id="path117"
         style="fill:#000000;fill-opacity:1" />
      <path
         d="m 320.1208,172.4306 c 0,-0.92188 -0.125,-2.39063 -0.79688,-3.78125 -0.70312,-1.4375 -1.6875,-2.21875 -1.8125,-2.21875 -0.0469,0 -0.10937,0.0312 -0.10937,0.0937 0,0.0469 0,0.0625 0.20312,0.26562 1.20313,1.20313 1.85938,3.1875 1.85938,5.625 0,2.3125 -0.5625,4.3125 -1.9375,5.71875 -0.125,0.10938 -0.125,0.14063 -0.125,0.17188 0,0.0625 0.0625,0.0937 0.10937,0.0937 0.15625,0 1.14063,-0.85938 1.71875,-2.03125 0.60938,-1.21875 0.89063,-2.51563 0.89063,-3.9375 z m 0,0"
         id="path121"
         style="fill:#000000;fill-opacity:1"
         clip-path="url(#clipPath14345)" />
    </g>
  </g>
  <g
     id="g14807"
     transform="translate(-11.647154,-36.198907)">
    <g
       id="g13666"
       transform="translate(-261.99993,118.21345)">
      <g
         fill="#000000"
         fill-opacity="1"
         id="g44"
         transform="translate(273.69671,-47.349873)">
        <g
           id="use42"
           transform="translate(0,9.8430004)">
          <path
             d="M 2.46875,-3.5 C 2.484375,-3.578125 2.78125,-4.171875 3.234375,-4.546875 3.53125,-4.84375 3.9375,-5.03125 4.40625,-5.03125 c 0.484375,0 0.65625,0.359375 0.65625,0.828125 0,0.6875 -0.5,2.046875 -0.734375,2.703125 -0.109375,0.28125 -0.171875,0.4375 -0.171875,0.65625 0,0.53125 0.375,0.96875 0.953125,0.96875 1.109375,0 1.53125,-1.765625 1.53125,-1.828125 0,-0.0625 -0.046875,-0.109375 -0.125,-0.109375 -0.109375,0 -0.125,0.03125 -0.1875,0.234375 C 6.0625,-0.59375 5.609375,-0.125 5.140625,-0.125 c -0.125,0 -0.3125,0 -0.3125,-0.390625 0,-0.296875 0.125,-0.65625 0.203125,-0.828125 C 5.265625,-2 5.765625,-3.328125 5.765625,-4.015625 c 0,-0.71875 -0.40625,-1.25 -1.3125,-1.25 -1.078125,0 -1.625,0.75 -1.84375,1.046875 -0.046875,-0.6875 -0.53125,-1.046875 -1.0625,-1.046875 -0.375,0 -0.640625,0.21875 -0.84375,0.625 -0.21875,0.4375 -0.375,1.15625 -0.375,1.203125 0,0.046875 0.046875,0.109375 0.125,0.109375 0.09375,0 0.109375,-0.015625 0.1875,-0.296875 0.1875,-0.71875 0.40625,-1.40625 0.875,-1.40625 0.28125,0 0.375,0.1875 0.375,0.546875 0,0.265625 -0.125,0.734375 -0.203125,1.109375 l -0.34375,1.28125 c -0.046875,0.234375 -0.171875,0.765625 -0.234375,0.984375 -0.078125,0.3125 -0.21875,0.875 -0.21875,0.9375 0,0.15625 0.140625,0.296875 0.3125,0.296875 0.140625,0 0.3125,-0.078125 0.40625,-0.25 C 1.640625,-0.1875 1.75,-0.609375 1.8125,-0.84375 l 0.25,-1.078125 z m 0,0"
             id="path116" />
        </g>
      </g>
      <g
         fill="#000000"
         fill-opacity="1"
         id="g48"
         transform="translate(273.69671,-47.349873)">
        <g
           id="use46"
           transform="translate(10.308,9.8430004)">
          <path
             d="m 8.0625,-3.875 c 0.171875,0 0.390625,0 0.390625,-0.21875 C 8.453125,-4.3125 8.25,-4.3125 8.0625,-4.3125 H 1.03125 c -0.171875,0 -0.390625,0 -0.390625,0.21875 0,0.21875 0.203125,0.21875 0.390625,0.21875 z m 0,2.21875 c 0.171875,0 0.390625,0 0.390625,-0.203125 C 8.453125,-2.09375 8.25,-2.09375 8.0625,-2.09375 H 1.03125 c -0.171875,0 -0.390625,0 -0.390625,0.21875 0,0.21875 0.203125,0.21875 0.390625,0.21875 z m 0,0"
             id="path120" />
        </g>
      </g>
      <g
         fill="#000000"
         fill-opacity="1"
         id="g54"
         transform="translate(273.69671,-47.349873)">
        <g
           id="use50"
           transform="translate(22.736626,9.8430004)">
          <path
             d="m 3.4375,-7.65625 c 0,-0.28125 0,-0.296875 -0.234375,-0.296875 C 2.921875,-7.625 2.3125,-7.1875 1.09375,-7.1875 v 0.34375 c 0.265625,0 0.859375,0 1.53125,-0.296875 v 6.21875 c 0,0.4375 -0.046875,0.578125 -1.09375,0.578125 h -0.375 V 0 c 0.328125,-0.03125 1.484375,-0.03125 1.875,-0.03125 0.40625,0 1.546875,0 1.875,0.03125 v -0.34375 h -0.375 c -1.046875,0 -1.09375,-0.140625 -1.09375,-0.578125 z m 0,0"
             id="path124" />
        </g>
        <g
           id="use52"
           transform="translate(28.589891,9.8430004)">
          <path
             d="M 5.265625,-2.015625 H 5 c -0.046875,0.203125 -0.140625,0.875 -0.25,1.0625 C 4.65625,-0.84375 3.984375,-0.84375 3.625,-0.84375 H 1.40625 c 0.328125,-0.28125 1.0625,-1.046875 1.359375,-1.328125 1.828125,-1.671875 2.5,-2.296875 2.5,-3.484375 0,-1.375 -1.09375,-2.296875 -2.484375,-2.296875 -1.375,0 -2.203125,1.1875 -2.203125,2.21875 0,0.609375 0.53125,0.609375 0.5625,0.609375 0.265625,0 0.5625,-0.1875 0.5625,-0.5625 0,-0.34375 -0.21875,-0.5625 -0.5625,-0.5625 -0.09375,0 -0.125,0 -0.15625,0.015625 0.21875,-0.8125 0.875,-1.375 1.640625,-1.375 1.015625,0 1.640625,0.859375 1.640625,1.953125 C 4.265625,-4.640625 3.6875,-3.75 3,-2.984375 L 0.578125,-0.28125 V 0 h 4.375 z m 0,0"
             id="path128" />
        </g>
      </g>
    </g>
    <g
       id="g13697"
       transform="translate(-300.87593,138.07235)">
      <g
         fill="#000000"
         fill-opacity="1"
         id="g58"
         transform="translate(273.69671,-47.349873)">
        <g
           id="use56"
           transform="translate(38.341999,9.8430004)">
          <path
             d="m 5.53125,-3.03125 c 0,-1.15625 -0.65625,-2.234375 -1.921875,-2.234375 -1.5625,0 -3.125,1.703125 -3.125,3.40625 0,1.03125 0.640625,1.984375 1.859375,1.984375 0.734375,0 1.625,-0.296875 2.46875,-1.015625 C 4.984375,-0.21875 5.359375,0.125 5.875,0.125 c 0.640625,0 0.96875,-0.671875 0.96875,-0.828125 0,-0.109375 -0.09375,-0.109375 -0.125,-0.109375 -0.09375,0 -0.109375,0.03125 -0.140625,0.125 C 6.46875,-0.375 6.1875,-0.125 5.90625,-0.125 c -0.375,0 -0.375,-0.765625 -0.375,-1.484375 1.21875,-1.46875 1.515625,-2.96875 1.515625,-2.984375 0,-0.109375 -0.109375,-0.109375 -0.140625,-0.109375 -0.109375,0 -0.109375,0.046875 -0.171875,0.25 -0.140625,0.53125 -0.453125,1.46875 -1.203125,2.4375 z m -0.75,1.859375 c -1.046875,0.9375 -2,1.046875 -2.421875,1.046875 -0.84375,0 -1.078125,-0.75 -1.078125,-1.3125 0,-0.515625 0.265625,-1.734375 0.625,-2.390625 0.5,-0.828125 1.171875,-1.203125 1.703125,-1.203125 1.15625,0 1.15625,1.515625 1.15625,2.515625 0,0.296875 -0.015625,0.609375 -0.015625,0.90625 0,0.25 0.015625,0.3125 0.03125,0.4375 z m 0,0"
             id="path132" />
        </g>
      </g>
      <g
         fill="#000000"
         fill-opacity="1"
         id="g62"
         transform="translate(273.69671,-47.349873)">
        <g
           id="use60"
           transform="translate(49.183998,9.8430004)">
          <path
             d="m 8.0625,-3.875 c 0.171875,0 0.390625,0 0.390625,-0.21875 C 8.453125,-4.3125 8.25,-4.3125 8.0625,-4.3125 H 1.03125 c -0.171875,0 -0.390625,0 -0.390625,0.21875 0,0.21875 0.203125,0.21875 0.390625,0.21875 z m 0,2.21875 c 0.171875,0 0.390625,0 0.390625,-0.203125 C 8.453125,-2.09375 8.25,-2.09375 8.0625,-2.09375 H 1.03125 c -0.171875,0 -0.390625,0 -0.390625,0.21875 0,0.21875 0.203125,0.21875 0.390625,0.21875 z m 0,0"
             id="path136" />
        </g>
      </g>
      <g
         fill="#000000"
         fill-opacity="1"
         id="g66"
         transform="translate(273.69671,-47.349873)">
        <g
           id="use64"
           transform="translate(62.805,5.1360002)">
          <path
             d="m 2.015625,-2.65625 c 0.625,0 1.03125,0.453125 1.03125,1.296875 0,1 -0.5625,1.28125 -0.984375,1.28125 -0.4375,0 -1.046875,-0.15625 -1.328125,-0.578125 0.296875,0 0.5,-0.1875 0.5,-0.4375 0,-0.265625 -0.1875,-0.4375 -0.453125,-0.4375 -0.203125,0 -0.4375,0.125 -0.4375,0.453125 0,0.75 0.8125,1.25 1.734375,1.25 C 3.125,0.171875 3.875,-0.5625 3.875,-1.359375 3.875,-2.03125 3.34375,-2.625 2.53125,-2.8125 c 0.625,-0.21875 1.109375,-0.75 1.109375,-1.390625 0,-0.640625 -0.71875,-1.09375 -1.546875,-1.09375 -0.859375,0 -1.5,0.453125 -1.5,1.0625 0,0.296875 0.1875,0.421875 0.40625,0.421875 0.25,0 0.40625,-0.171875 0.40625,-0.40625 0,-0.296875 -0.265625,-0.40625 -0.4375,-0.40625 0.34375,-0.4375 0.953125,-0.46875 1.09375,-0.46875 0.203125,0 0.8125,0.0625 0.8125,0.890625 0,0.546875 -0.234375,0.890625 -0.34375,1.015625 -0.234375,0.25 -0.421875,0.265625 -0.90625,0.296875 -0.15625,0 -0.21875,0.015625 -0.21875,0.125 0,0.109375 0.078125,0.109375 0.21875,0.109375 z m 0,0"
             id="path140" />
        </g>
      </g>
      <g
         fill="#000000"
         fill-opacity="1"
         id="g70"
         transform="translate(273.69671,-47.349873)">
        <g
           id="use68"
           transform="translate(67.040001,5.1360002)">
          <path
             d="m 2.265625,-2.90625 h 0.90625 C 3.015625,-2.1875 2.875,-1.59375 2.875,-1 c 0,0.046875 0,0.390625 0.078125,0.6875 0.109375,0.328125 0.1875,0.390625 0.328125,0.390625 0.171875,0 0.359375,-0.15625 0.359375,-0.34375 0,-0.046875 0,-0.0625 -0.03125,-0.140625 C 3.4375,-0.765625 3.3125,-1.15625 3.3125,-1.8125 c 0,-0.171875 0,-0.515625 0.125,-1.09375 h 0.96875 c 0.125,0 0.203125,0 0.28125,-0.0625 0.109375,-0.09375 0.125,-0.1875 0.125,-0.25 0,-0.21875 -0.203125,-0.21875 -0.328125,-0.21875 h -2.875 c -0.171875,0 -0.484375,0 -0.875,0.390625 -0.28125,0.28125 -0.5,0.640625 -0.5,0.703125 0,0.078125 0.046875,0.09375 0.109375,0.09375 C 0.4375,-2.25 0.453125,-2.265625 0.5,-2.328125 0.890625,-2.90625 1.359375,-2.90625 1.53125,-2.90625 H 2 c -0.234375,0.84375 -0.65625,1.8125 -0.953125,2.390625 -0.046875,0.125 -0.125,0.28125 -0.125,0.34375 0,0.171875 0.125,0.25 0.25,0.25 0.3125,0 0.390625,-0.296875 0.5625,-0.953125 z m 0,0"
             id="path144" />
        </g>
      </g>
      <path
         fill="none"
         stroke-width="0.478"
         stroke-linecap="butt"
         stroke-linejoin="miter"
         stroke="#000000"
         stroke-opacity="1"
         stroke-miterlimit="10"
         d="m 336.5014,-40.494404 h 9.38281"
         id="path72" />
      <g
         clip-path="url(#clipPath1497)"
         id="g78"
         transform="translate(273.69671,-47.349873)">
        <g
           fill="#000000"
           fill-opacity="1"
           id="g76">
          <g
             id="use74"
             transform="translate(65.379997,13.966)">
            <path
               d="M 4.03125,-4.859375 C 4.109375,-4.9375 4.109375,-4.953125 4.109375,-5.125 H 2.078125 C 1.875,-5.125 1.640625,-5.140625 1.4375,-5.15625 1.015625,-5.1875 1.015625,-5.265625 0.984375,-5.390625 h -0.25 l -0.265625,1.6875 h 0.25 C 0.734375,-3.828125 0.828125,-4.375 0.9375,-4.4375 1.015625,-4.484375 1.625,-4.484375 1.734375,-4.484375 h 1.6875 L 2.609375,-3.375 C 1.703125,-2.171875 1.5,-0.90625 1.5,-0.28125 c 0,0.078125 0,0.453125 0.375,0.453125 0.375,0 0.375,-0.359375 0.375,-0.453125 V -0.671875 C 2.25,-1.8125 2.453125,-2.75 2.84375,-3.28125 Z m 0,0"
               id="path148" />
          </g>
        </g>
      </g>
    </g>
    <g
       id="g13720"
       transform="translate(-338.78793,158.54923)">
      <g
         fill="#000000"
         fill-opacity="1"
         id="g82"
         transform="translate(273.69671,-47.349873)">
        <g
           id="use80"
           transform="translate(77.286003,9.8430004)">
          <path
             d="m 3.359375,-8 c 0.015625,-0.046875 0.03125,-0.109375 0.03125,-0.171875 0,-0.125 -0.109375,-0.125 -0.140625,-0.125 -0.015625,0 -0.4375,0.03125 -0.65625,0.0625 C 2.390625,-8.21875 2.21875,-8.203125 2,-8.1875 c -0.296875,0.03125 -0.375,0.03125 -0.375,0.25 0,0.125 0.125,0.125 0.234375,0.125 0.609375,0 0.609375,0.109375 0.609375,0.21875 0,0.046875 0,0.078125 -0.046875,0.296875 L 0.703125,-0.46875 C 0.65625,-0.28125 0.65625,-0.265625 0.65625,-0.1875 c 0,0.265625 0.203125,0.3125 0.328125,0.3125 0.328125,0 0.40625,-0.265625 0.5,-0.640625 L 2.046875,-2.75 c 0.859375,0.09375 1.375,0.453125 1.375,1.03125 0,0.0625 0,0.109375 -0.046875,0.296875 -0.046875,0.171875 -0.046875,0.328125 -0.046875,0.375 0,0.703125 0.46875,1.171875 1.078125,1.171875 0.546875,0 0.828125,-0.5 0.921875,-0.671875 0.25,-0.4375 0.40625,-1.109375 0.40625,-1.15625 0,-0.0625 -0.046875,-0.109375 -0.109375,-0.109375 -0.109375,0 -0.125,0.046875 -0.171875,0.234375 C 5.28125,-0.953125 5.03125,-0.125 4.421875,-0.125 4.1875,-0.125 4.03125,-0.234375 4.03125,-0.6875 c 0,-0.234375 0.046875,-0.5 0.09375,-0.671875 0.046875,-0.21875 0.046875,-0.234375 0.046875,-0.375 0,-0.703125 -0.640625,-1.09375 -1.734375,-1.234375 0.4375,-0.265625 0.859375,-0.734375 1.03125,-0.921875 0.671875,-0.765625 1.140625,-1.140625 1.6875,-1.140625 0.28125,0 0.359375,0.078125 0.4375,0.140625 -0.4375,0.046875 -0.609375,0.359375 -0.609375,0.59375 0,0.296875 0.234375,0.390625 0.390625,0.390625 0.328125,0 0.609375,-0.28125 0.609375,-0.65625 0,-0.34375 -0.265625,-0.703125 -0.8125,-0.703125 -0.65625,0 -1.1875,0.453125 -2.046875,1.421875 -0.109375,0.140625 -0.5625,0.59375 -1,0.765625 z m 0,0"
             id="path152" />
        </g>
      </g>
      <g
         fill="#000000"
         fill-opacity="1"
         id="g86"
         transform="translate(273.69671,-47.349873)">
        <g
           id="use84"
           transform="translate(87.096001,9.8430004)">
          <path
             d="m 8.0625,-3.875 c 0.171875,0 0.390625,0 0.390625,-0.21875 C 8.453125,-4.3125 8.25,-4.3125 8.0625,-4.3125 H 1.03125 c -0.171875,0 -0.390625,0 -0.390625,0.21875 0,0.21875 0.203125,0.21875 0.390625,0.21875 z m 0,2.21875 c 0.171875,0 0.390625,0 0.390625,-0.203125 C 8.453125,-2.09375 8.25,-2.09375 8.0625,-2.09375 H 1.03125 c -0.171875,0 -0.390625,0 -0.390625,0.21875 0,0.21875 0.203125,0.21875 0.390625,0.21875 z m 0,0"
             id="path156" />
        </g>
      </g>
      <g
         fill="#000000"
         fill-opacity="1"
         id="g90"
         transform="translate(273.69671,-47.349873)">
        <g
           id="use88"
           transform="translate(99.524628,9.8430004)">
          <path
             d="M 5.265625,-2.015625 H 5 c -0.046875,0.203125 -0.140625,0.875 -0.25,1.0625 C 4.65625,-0.84375 3.984375,-0.84375 3.625,-0.84375 H 1.40625 c 0.328125,-0.28125 1.0625,-1.046875 1.359375,-1.328125 1.828125,-1.671875 2.5,-2.296875 2.5,-3.484375 0,-1.375 -1.09375,-2.296875 -2.484375,-2.296875 -1.375,0 -2.203125,1.1875 -2.203125,2.21875 0,0.609375 0.53125,0.609375 0.5625,0.609375 0.265625,0 0.5625,-0.1875 0.5625,-0.5625 0,-0.34375 -0.21875,-0.5625 -0.5625,-0.5625 -0.09375,0 -0.125,0 -0.15625,0.015625 0.21875,-0.8125 0.875,-1.375 1.640625,-1.375 1.015625,0 1.640625,0.859375 1.640625,1.953125 C 4.265625,-4.640625 3.6875,-3.75 3,-2.984375 L 0.578125,-0.28125 V 0 h 4.375 z m 0,0"
             id="path160" />
        </g>
      </g>
    </g>
    <g
       id="g13748"
       transform="translate(-370.46056,98.617447)">
      <g
         fill="#000000"
         fill-opacity="1"
         id="g94"
         transform="translate(273.69671,-47.349873)">
        <g
           id="use92"
           transform="translate(109.277,9.8430004)">
          <path
             d="m 5.296875,-6.015625 c 0,-1.21875 -0.390625,-2.40625 -1.359375,-2.40625 -1.671875,0 -3.453125,3.515625 -3.453125,6.140625 0,0.546875 0.109375,2.40625 1.375,2.40625 1.625,0 3.4375,-3.421875 3.4375,-6.140625 z m -3.625,1.6875 c 0.1875,-0.703125 0.4375,-1.703125 0.90625,-2.5625 0.390625,-0.71875 0.8125,-1.28125 1.34375,-1.28125 0.390625,0 0.65625,0.328125 0.65625,1.484375 0,0.421875 -0.03125,1.015625 -0.375,2.359375 z m 2.4375,0.359375 C 3.8125,-2.796875 3.5625,-2.046875 3.125,-1.296875 2.78125,-0.6875 2.359375,-0.125 1.859375,-0.125 1.5,-0.125 1.1875,-0.40625 1.1875,-1.59375 c 0,-0.765625 0.203125,-1.578125 0.390625,-2.375 z m 0,0"
             id="path164" />
        </g>
      </g>
      <g
         fill="#000000"
         fill-opacity="1"
         id="g98"
         transform="translate(273.69671,-47.349873)">
        <g
           id="use96"
           transform="translate(118.378,9.8430004)">
          <path
             d="m 8.0625,-3.875 c 0.171875,0 0.390625,0 0.390625,-0.21875 C 8.453125,-4.3125 8.25,-4.3125 8.0625,-4.3125 H 1.03125 c -0.171875,0 -0.390625,0 -0.390625,0.21875 0,0.21875 0.203125,0.21875 0.390625,0.21875 z m 0,2.21875 c 0.171875,0 0.390625,0 0.390625,-0.203125 C 8.453125,-2.09375 8.25,-2.09375 8.0625,-2.09375 H 1.03125 c -0.171875,0 -0.390625,0 -0.390625,0.21875 0,0.21875 0.203125,0.21875 0.390625,0.21875 z m 0,0"
             id="path168" />
        </g>
      </g>
      <g
         fill="#000000"
         fill-opacity="1"
         id="g102"
         transform="translate(273.69671,-47.349873)">
        <g
           id="use100"
           transform="translate(131.99899,5.1360002)">
          <path
             d="m 2.265625,-2.90625 h 0.90625 C 3.015625,-2.1875 2.875,-1.59375 2.875,-1 c 0,0.046875 0,0.390625 0.078125,0.6875 0.109375,0.328125 0.1875,0.390625 0.328125,0.390625 0.171875,0 0.359375,-0.15625 0.359375,-0.34375 0,-0.046875 0,-0.0625 -0.03125,-0.140625 C 3.4375,-0.765625 3.3125,-1.15625 3.3125,-1.8125 c 0,-0.171875 0,-0.515625 0.125,-1.09375 h 0.96875 c 0.125,0 0.203125,0 0.28125,-0.0625 0.109375,-0.09375 0.125,-0.1875 0.125,-0.25 0,-0.21875 -0.203125,-0.21875 -0.328125,-0.21875 h -2.875 c -0.171875,0 -0.484375,0 -0.875,0.390625 -0.28125,0.28125 -0.5,0.640625 -0.5,0.703125 0,0.078125 0.046875,0.09375 0.109375,0.09375 C 0.4375,-2.25 0.453125,-2.265625 0.5,-2.328125 0.890625,-2.90625 1.359375,-2.90625 1.53125,-2.90625 H 2 c -0.234375,0.84375 -0.65625,1.8125 -0.953125,2.390625 -0.046875,0.125 -0.125,0.28125 -0.125,0.34375 0,0.171875 0.125,0.25 0.25,0.25 0.3125,0 0.390625,-0.296875 0.5625,-0.953125 z m 0,0"
             id="path172" />
        </g>
      </g>
      <path
         fill="none"
         stroke-width="0.478"
         stroke-linecap="butt"
         stroke-linejoin="miter"
         stroke="#000000"
         stroke-opacity="1"
         stroke-miterlimit="10"
         d="m 405.69671,-40.494404 h 5.14844"
         id="path104" />
      <g
         clip-path="url(#clipPath3887)"
         id="g110"
         transform="translate(273.69671,-47.349873)">
        <g
           fill="#000000"
           fill-opacity="1"
           id="g108">
          <g
             id="use106"
             transform="translate(132.45599,13.966)">
            <path
               d="m 2.015625,-2.65625 c 0.625,0 1.03125,0.453125 1.03125,1.296875 0,1 -0.5625,1.28125 -0.984375,1.28125 -0.4375,0 -1.046875,-0.15625 -1.328125,-0.578125 0.296875,0 0.5,-0.1875 0.5,-0.4375 0,-0.265625 -0.1875,-0.4375 -0.453125,-0.4375 -0.203125,0 -0.4375,0.125 -0.4375,0.453125 0,0.75 0.8125,1.25 1.734375,1.25 C 3.125,0.171875 3.875,-0.5625 3.875,-1.359375 3.875,-2.03125 3.34375,-2.625 2.53125,-2.8125 c 0.625,-0.21875 1.109375,-0.75 1.109375,-1.390625 0,-0.640625 -0.71875,-1.09375 -1.546875,-1.09375 -0.859375,0 -1.5,0.453125 -1.5,1.0625 0,0.296875 0.1875,0.421875 0.40625,0.421875 0.25,0 0.40625,-0.171875 0.40625,-0.40625 0,-0.296875 -0.265625,-0.40625 -0.4375,-0.40625 0.34375,-0.4375 0.953125,-0.46875 1.09375,-0.46875 0.203125,0 0.8125,0.0625 0.8125,0.890625 0,0.546875 -0.234375,0.890625 -0.34375,1.015625 -0.234375,0.25 -0.421875,0.265625 -0.90625,0.296875 -0.15625,0 -0.21875,0.015625 -0.21875,0.125 0,0.109375 0.078125,0.109375 0.21875,0.109375 z m 0,0"
               id="path176" />
          </g>
        </g>
      </g>
    </g>
  </g>
</svg>
